<svg id="Layer_1" data-name="Layer 1" xmlns="http://www.w3.org/2000/svg" viewBox="0 0 411.32 156.24"><defs><style>.cls-1,.cls-6{fill:#8dc63f;}.cls-1,.cls-2,.cls-3{stroke:#231f20;}.cls-2,.cls-4{fill:#58595b;}.cls-2,.cls-3{stroke-width:2px;}.cls-3,.cls-5{fill:#d1d3d4;}.cls-7{fill:#fff;}.cls-8{fill:#ed1c24;}.cls-9{fill:none;stroke:#fff;stroke-width:3.67px;}</style></defs><title>logo6</title><path class="cls-1" d="M193.39,91.94l-1-1.51v0L180,72.25l-6-8.88h13.39l9.42,13.86,2.33,3.37,2.3-3.37,9.42-13.86h13.39l-6,8.88L207.37,88l-2.65,3.84v25.58H193.39V91.94Z" transform="translate(-8.38 -5.34)"/><path class="cls-1" d="M193.39,91.94l-1-1.51v0L180,72.25l-6-8.88h13.39l9.42,13.86,2.33,3.37,2.3-3.37,9.42-13.86h13.39l-6,8.88L207.37,88l-2.65,3.84v25.58H193.39V91.94Z" transform="translate(-8.38 -5.34)"/><path class="cls-2" d="M28.75,99.63h-8v19.69H9.5c-0.06,0-.11-0.09-0.13-0.28V68.23l0.06-.47q1.51-2.49,5.48-2.49H54.07q4,0,5.48,2.49l0.06,0.47V96.67l-0.06.47Q58,99.63,54.07,99.63H43.43l16.19,19.69H44.94Zm19.5-24H20.72V89.17H48.25V75.63Z" transform="translate(-8.38 -5.34)"/><path class="cls-2" d="M75.31,89.17h38.9V99.63H75.31V109h38.9v10.36H69.52q-4,0-5.48-2.49L64,116.36V68.23L64,67.75q1.51-2.49,5.48-2.49h44.7V75.63H75.31V89.17Z" transform="translate(-8.38 -5.34)"/><path class="cls-2" d="M293.71,109h38.9v10.36h-44.7q-4,0-5.48-2.49l-0.06-.47V65.55q0-.28.13-0.28h11.06a0.27,0.27,0,0,1,.16.28V109Z" transform="translate(-8.38 -5.34)"/><path class="cls-2" d="M348.31,89.17h38.9V99.63h-38.9V109h38.9v10.36h-44.7q-4,0-5.48-2.49l-0.06-.47V68.23l0.06-.47q1.51-2.49,5.48-2.49h44.7V75.63h-38.9V89.17Z" transform="translate(-8.38 -5.34)"/><path class="cls-3" d="M129.91,109h38.9v10.36h-44.7q-4,0-5.48-2.49l-0.06-.47V68.23l0.06-.47q1.51-2.49,5.48-2.49h44.7V75.63h-38.9V109Z" transform="translate(-8.38 -5.34)"/><path class="cls-3" d="M239.11,109H278v10.36h-44.7q-4,0-5.48-2.49l-0.06-.47V68.23l0.06-.47q1.51-2.49,5.48-2.49H278V75.63h-38.9V109Z" transform="translate(-8.38 -5.34)"/><path class="cls-4" d="M28.75,99.63h-8v19.69H9.5c-0.06,0-.11-0.09-0.13-0.28V68.23l0.06-.47q1.51-2.49,5.48-2.49H54.07q4,0,5.48,2.49l0.06,0.47V96.67l-0.06.47Q58,99.63,54.07,99.63H43.43l16.19,19.69H44.94Zm19.5-24H20.72V89.17H48.25V75.63Z" transform="translate(-8.38 -5.34)"/><path class="cls-4" d="M75.31,89.17h38.9V99.63H75.31V109h38.9v10.36H69.52q-4,0-5.48-2.49L64,116.36V68.23L64,67.75q1.51-2.49,5.48-2.49h44.7V75.63H75.31V89.17Z" transform="translate(-8.38 -5.34)"/><path class="cls-4" d="M293.71,109h38.9v10.36h-44.7q-4,0-5.48-2.49l-0.06-.47V65.55q0-.28.13-0.28h11.06a0.27,0.27,0,0,1,.16.28V109Z" transform="translate(-8.38 -5.34)"/><path class="cls-4" d="M348.31,89.17h38.9V99.63h-38.9V109h38.9v10.36h-44.7q-4,0-5.48-2.49l-0.06-.47V68.23l0.06-.47q1.51-2.49,5.48-2.49h44.7V75.63h-38.9V89.17Z" transform="translate(-8.38 -5.34)"/><path class="cls-5" d="M129.91,109h38.9v10.36h-44.7q-4,0-5.48-2.49l-0.06-.47V68.23l0.06-.47q1.51-2.49,5.48-2.49h44.7V75.63h-38.9V109Z" transform="translate(-8.38 -5.34)"/><path class="cls-5" d="M239.11,109H278v10.36h-44.7q-4,0-5.48-2.49l-0.06-.47V68.23l0.06-.47q1.51-2.49,5.48-2.49H278V75.63h-38.9V109Z" transform="translate(-8.38 -5.34)"/><path class="cls-6" d="M198.76,160.42a69.3,69.3,0,1,1,69.3-69.3A69.38,69.38,0,0,1,198.76,160.42Zm0-127.49A58.19,58.19,0,1,0,257,91.11,58.26,58.26,0,0,0,198.76,32.92Z" transform="translate(-8.38 -5.34)"/><path class="cls-7" d="M198.76,23a68.13,68.13,0,1,1-68.13,68.13A68.21,68.21,0,0,1,198.76,23m0,127.49A59.36,59.36,0,1,0,139.4,91.11a59.43,59.43,0,0,0,59.36,59.36m0-129.83a70.47,70.47,0,1,0,70.47,70.47,70.55,70.55,0,0,0-70.47-70.47h0Zm0,127.49a57,57,0,1,1,57-57,57.08,57.08,0,0,1-57,57h0Z" transform="translate(-8.38 -5.34)"/><polygon class="cls-6" points="185.23 21.54 178.59 2.84 216.72 27.42 172.29 36.57 185.23 21.54"/><path class="cls-7" d="M189.21,11l32.84,21.16-38.26,7.89,11.15-12.95L189.21,11m-4.5-5.69,2.3,6.47,5.27,14.82L182,38.55l-4.48,5.2,6.72-1.39,38.26-7.89,5.61-1.16-4.81-3.1L190.48,9.06l-5.77-3.72h0Z" transform="translate(-8.38 -5.34)"/><polygon class="cls-6" points="125.63 82.02 152.24 118.76 133.21 113.14 118.9 126.88 125.63 82.02"/><path class="cls-7" d="M134.74,90.36L157.65,122l-16.39-4.84L128.94,129l5.8-38.63m-1.46-6L132.43,90l-5.8,38.63-1,6.79,5-4.76,11.35-10.89L157,124.25l6.58,1.95-4-5.56L136.63,89l-3.36-4.64h0Z" transform="translate(-8.38 -5.34)"/><polygon class="cls-6" points="239.25 100.83 244.1 120.06 263.22 125.38 221.19 142.44 239.25 100.83"/><path class="cls-7" d="M247.33,109.78l4.18,16.57L268,130.92l-36.2,14.69,15.55-35.84m0.59-7.23-2.73,6.3-15.55,35.84-2.28,5.25,5.31-2.15,36.2-14.69,6.36-2.58-6.61-1.84-15.15-4.21-3.85-15.25-1.68-6.66h0Z" transform="translate(-8.38 -5.34)"/><path class="cls-8" d="M366.24,149.76l-11.6-.19,6.56-32.48,11.6,0.19Zm7.47-37-11.6-.19,1.85-9.16,11.6,0.19Z" transform="translate(-8.38 -5.34)"/><path class="cls-8" d="M391.12,150.42a41.15,41.15,0,0,1-6.29.51q-6.36-.1-8.37-2.25t-1.09-6.73l3.45-17.1-4.81-.08,1.5-7.45,4.81,0.08,2.32-11.48,11.6,0.19-2.32,11.48,5.43,0.09-1.5,7.45-5.43-.09-3.08,15.26q-0.57,2.81,2.64,2.86a11.53,11.53,0,0,0,2.69-.45Z" transform="translate(-8.38 -5.34)"/><path class="cls-8" d="M407.27,150.44l-12.09-.2,2.42-12,12.09,0.2Zm9.94-46.15-9.27,29.38-6.79-.11,2.73-29.48Z" transform="translate(-8.38 -5.34)"/><path class="cls-9" d="M366.24,149.76l-11.6-.19,6.56-32.48,11.6,0.19Zm7.47-37-11.6-.19,1.85-9.16,11.6,0.19Z" transform="translate(-8.38 -5.34)"/><path class="cls-9" d="M391.12,150.42a41.15,41.15,0,0,1-6.29.51q-6.36-.1-8.37-2.25t-1.09-6.73l3.45-17.1-4.81-.08,1.5-7.45,4.81,0.08,2.32-11.48,11.6,0.19-2.32,11.48,5.43,0.09-1.5,7.45-5.43-.09-3.08,15.26q-0.57,2.81,2.64,2.86a11.53,11.53,0,0,0,2.69-.45Z" transform="translate(-8.38 -5.34)"/><path class="cls-9" d="M407.27,150.44l-12.09-.2,2.42-12,12.09,0.2Zm9.94-46.15-9.27,29.38-6.79-.11,2.73-29.48Z" transform="translate(-8.38 -5.34)"/><path class="cls-6" d="M366.24,149.76l-11.6-.19,6.56-32.48,11.6,0.19Zm7.47-37-11.6-.19,1.85-9.16,11.6,0.19Z" transform="translate(-8.38 -5.34)"/><path class="cls-6" d="M391.12,150.42a41.15,41.15,0,0,1-6.29.51q-6.36-.1-8.37-2.25t-1.09-6.73l3.45-17.1-4.81-.08,1.5-7.45,4.81,0.08,2.32-11.48,11.6,0.19-2.32,11.48,5.43,0.09-1.5,7.45-5.43-.09-3.08,15.26q-0.57,2.81,2.64,2.86a11.53,11.53,0,0,0,2.69-.45Z" transform="translate(-8.38 -5.34)"/><path class="cls-6" d="M407.27,150.44l-12.09-.2,2.42-12,12.09,0.2Zm9.94-46.15-9.27,29.38-6.79-.11,2.73-29.48Z" transform="translate(-8.38 -5.34)"/></svg>